<?xml version="1.0" encoding="utf-8"?>
<!-- Generator: Adobe Illustrator 19.0.0, SVG Export Plug-In . SVG Version: 6.00 Build 0)  -->
<svg version="1.1" id="Lager_1" xmlns="http://www.w3.org/2000/svg" xmlns:xlink="http://www.w3.org/1999/xlink" x="0px" y="0px"
	 viewBox="0 0 192.3 94.5" style="enable-background:new 0 0 192.3 94.5;" xml:space="preserve">
<g>
	<path d="M67,12.7l17.6,0.2c0,0,7.9-5.3,16.9-5.2c9,0.1,14.7,7.2,14.7,9.7l12.7,0.1c0,0-1.4-17.2-25.3-17.4
		C79.9-0.2,67,12.7,67,12.7"/>
	<path d="M61.5,16.9c0,0-4.5,5-6,8.3L87,25.5l-0.2,20.4l11-6.9l0.1-13.3l6.4,0.1l6.4-8.5L61.5,16.9z"/>
	<polygon points="73.2,29.6 73.1,45.8 83.5,38.9 83.6,29.7 	"/>
	<path d="M68.9,29.9l-14.7-0.1c0,0-7.6,27.4,26.2,27.7c0,0,12.7,1.2,29.1-7.9l3.9,5.5l13.9-20.7l-26.2-0.2l4.1,7.5
		c0,0-10.5,8.6-23.7,8.5C68.4,50,65.3,39.8,68.9,29.9"/>
	<g>
		<rect x="-7" y="83.3" transform="matrix(-4.174985e-003 -1 1 -4.174985e-003 -83.2831 87.8314)" width="18.2" height="4.1"/>
		<polygon points="13.1,79.7 8.1,79.7 8.1,76.3 22.1,76.2 22.1,79.7 17.2,79.7 17.2,94.4 13.1,94.5 		"/>
		<rect x="26.2" y="83.8" transform="matrix(-3.448508e-003 -1 1 -3.448508e-003 -59.6103 115.2032)" width="2.7" height="7.1"/>
		<path d="M49.6,93.5c-1.3,0.4-3.7,1-6.1,1.1c-3.3,0-5.7-0.8-7.4-2.4c-1.7-1.6-2.6-4-2.6-6.6c0-6.1,4.4-9.5,10.4-9.6
			c2.3,0,4.2,0.4,5.1,0.8l-0.9,3.3c-1-0.5-2.2-0.8-4.2-0.8c-3.4,0-6,2-6,5.9c0,3.8,2.4,6,5.8,5.9c0.9,0,1.7-0.1,2-0.2l0-3.8l-2.8,0
			l0-3.2l6.8,0L49.6,93.5z"/>
		<path d="M58.9,94.3l0-7.5l-5.8-10.7l4.7,0l1.9,4.4c0.6,1.3,1,2.3,1.4,3.5l0.1,0c0.4-1.1,0.8-2.2,1.4-3.5l1.8-4.4l4.6,0L63,86.7
			l0,7.6L58.9,94.3z"/>
		<path d="M88.2,87.2C88.1,85,88,82.4,88,79.7l-0.1,0c-0.6,2.3-1.3,4.9-2,7.1l-2.2,7.1l-3.2,0l-2-7c-0.6-2.2-1.2-4.7-1.7-7.1l-0.1,0
			c-0.1,2.5-0.2,5.3-0.3,7.5l-0.3,6.9l-3.8,0L73.5,76l5.5,0l1.8,6.1c0.6,2.1,1.2,4.3,1.6,6.5l0.1,0c0.5-2.1,1.1-4.5,1.7-6.5l1.9-6.1
			l5.4,0l1.1,18.2l-4,0L88.2,87.2z"/>
		<path d="M97.5,94.1l-0.1-18.2l4.8,0l3.8,6.7c1.1,1.9,2.1,4.2,3,6.2l0.1,0c-0.3-2.4-0.3-4.9-0.4-7.6l0-5.3l3.8,0l0.1,18.2l-4.3,0
			l-3.9-7c-1.1-2-2.3-4.3-3.2-6.4l-0.1,0c0.1,2.4,0.2,5,0.2,8l0,5.5L97.5,94.1z"/>
		<path d="M122.2,89.4l-1.2,4.7l-4.3,0l5.5-18.2l5.4,0l5.7,18.2l-4.4,0l-1.4-4.7L122.2,89.4z M126.8,86.3l-1.2-3.9
			c-0.3-1.1-0.6-2.5-0.9-3.5l-0.1,0c-0.2,1.1-0.5,2.5-0.8,3.5l-1.1,3.9L126.8,86.3z"/>
		<path d="M137.6,89.8c1.1,0.6,2.8,1.1,4.6,1.1c1.9,0,2.9-0.8,2.9-2c0-1.1-0.9-1.8-3.1-2.5c-3-1.1-5-2.7-5-5.4
			c0-3.1,2.6-5.5,6.9-5.5c2.1,0,3.6,0.4,4.6,0.9l-0.9,3.3c-0.7-0.3-2-0.9-3.8-0.8c-1.8,0-2.6,0.8-2.6,1.8c0,1.2,1,1.7,3.4,2.6
			c3.2,1.2,4.7,2.8,4.7,5.4c0,3-2.3,5.7-7.3,5.7c-2.1,0-4.1-0.5-5.2-1.1L137.6,89.8z"/>
		<rect x="146.9" y="82.8" transform="matrix(-4.153240e-003 -1 1 -4.153240e-003 71.8089 241.1845)" width="18.2" height="4.1"/>
		<polygon points="174.3,86.2 167.6,86.2 167.6,90.5 175.1,90.5 175.1,93.9 163.5,93.9 163.4,75.7 174.7,75.7 174.7,79 167.6,79.1 
			167.6,82.9 174.3,82.8 		"/>
		<polygon points="183.2,79.1 178.3,79.1 178.3,75.7 192.3,75.6 192.3,79.1 187.3,79.1 187.4,93.8 183.3,93.9 		"/>
	</g>
</g>
</svg>
